<svg id="Layer_1" data-name="Layer 1" xmlns="http://www.w3.org/2000/svg" viewBox="0 0 64 64"><defs><style>.cls-1,.cls-5{fill:#ffdc29;}.cls-1{opacity:0.5;}.cls-1,.cls-6,.cls-7,.cls-8{isolation:isolate;}.cls-2,.cls-3{fill:none;stroke:#010101;stroke-width:2px;}.cls-2{stroke-linecap:round;stroke-linejoin:round;}.cls-3{stroke-miterlimit:10;}.cls-4{fill:#010101;}.cls-7,.cls-8{font-size:0.3px;font-family:Roboto-Bold, Roboto;font-weight:700;}.cls-8{letter-spacing:-0.01em;}</style></defs><g id="Layer_2" data-name="Layer 2"><g id="OBJECTS"><circle class="cls-1" cx="32.2" cy="21.99" r="15.96"/><polyline class="cls-2" points="29.35 35.54 32.08 44.27 34.82 35.54"/><path class="cls-3" d="M40.84,44.66A16.55,16.55,0,0,1,45.6,35.9,19.06,19.06,0,1,0,19,36a16.08,16.08,0,0,1,4.66,8.66"/><path class="cls-4" d="M32.25,60.13h0A5.68,5.68,0,0,1,28,58.24l-1.58-1.79H38.06l-1.58,1.79A5.7,5.7,0,0,1,32.25,60.13Z"/><path class="cls-5" d="M41,48.39H23.49a2,2,0,0,1-2-2h0a2,2,0,0,1,2-2.05H41a2,2,0,0,1,2,2h0a2.05,2.05,0,0,1-2,2Z"/><path class="cls-4" d="M22,47.67a2,2,0,0,0,1.54.72H41a2,2,0,0,0,1.54-.72Z"/><path class="cls-5" d="M41,52.47H23.49a2,2,0,0,1-2-2h0a2,2,0,0,1,2-2H41a2,2,0,0,1,2,2h0a2,2,0,0,1-2,2Z"/><path class="cls-4" d="M22,51.74a2,2,0,0,0,1.54.72H41a2,2,0,0,0,1.54-.72Z"/><path class="cls-5" d="M41,56.55H23.49a2,2,0,0,1-2-2h0a2,2,0,0,1,2-2H41a2,2,0,0,1,2,2h0a2,2,0,0,1-2,2Z"/><path class="cls-4" d="M22,55.83a2.07,2.07,0,0,0,1.54.72H41a2.07,2.07,0,0,0,1.54-.72Z"/><g class="cls-6"><text class="cls-7" transform="translate(51.98 23.28)">Lo</text><text class="cls-8" transform="translate(52.31 23.28)">r</text><text class="cls-7" transform="translate(52.42 23.28)">em ipsum</text></g></g></g></svg>