<svg xmlns="http://www.w3.org/2000/svg" viewBox="0 0 149.56 192.19"><defs><style>.cls-1,.cls-5{fill:#ffdc29;}.cls-1,.cls-12{opacity:0.5;}.cls-2,.cls-3{fill:none;stroke:#010101;stroke-width:2px;}.cls-2{stroke-linecap:round;stroke-linejoin:round;}.cls-3{stroke-miterlimit:10;}.cls-4{fill:#010101;}.cls-6{font-size:21px;}.cls-10,.cls-6,.cls-8{font-family:Roboto-Bold, Roboto;font-weight:700;}.cls-7{font-size:24px;}.cls-8{font-size:12px;}.cls-9{font-size:26px;}.cls-10{font-size:1px;}.cls-11{letter-spacing:-0.01em;}.cls-13{fill:#ffe700;}</style></defs><g id="Layer_2" data-name="Layer 2"><g id="OBJECTS"><circle class="cls-1" cx="76.13" cy="64.02" r="53.65" transform="translate(-3.35 123.83) rotate(-77.02)"/><polyline class="cls-2" points="66.57 109.56 75.75 138.9 84.93 109.56"/><path class="cls-3" d="M105.16,140.2a55.9,55.9,0,0,1,16-29.45,64,64,0,0,0-60-107.94c-32.37,7.8-53.62,40.13-48,73A63.67,63.67,0,0,0,31.78,111.1a53.91,53.91,0,0,1,15.67,29.1"/><path class="cls-4" d="M76.3,192.19h0a19,19,0,0,1-14.2-6.35l-5.32-6H95.83l-5.32,6A19.07,19.07,0,0,1,76.3,192.19Z"/><path class="cls-5" d="M105.74,152.73H46.87A6.86,6.86,0,0,1,40,145.88h0A6.86,6.86,0,0,1,46.87,139h58.87a6.85,6.85,0,0,1,6.85,6.86h0A6.85,6.85,0,0,1,105.74,152.73Z"/><path class="cls-4" d="M41.68,150.31a6.81,6.81,0,0,0,5.19,2.42h58.87a6.79,6.79,0,0,0,5.18-2.42Z"/><path class="cls-5" d="M105.74,166.44H46.87A6.86,6.86,0,0,1,40,159.58h0a6.86,6.86,0,0,1,6.86-6.85h58.87a6.85,6.85,0,0,1,6.85,6.85h0A6.85,6.85,0,0,1,105.74,166.44Z"/><path class="cls-4" d="M41.68,164a6.81,6.81,0,0,0,5.19,2.42h58.87a6.79,6.79,0,0,0,5.18-2.42Z"/><path class="cls-5" d="M105.74,180.15H46.87A6.86,6.86,0,0,1,40,173.29h0a6.86,6.86,0,0,1,6.86-6.85h58.87a6.85,6.85,0,0,1,6.85,6.85h0A6.85,6.85,0,0,1,105.74,180.15Z"/><path class="cls-4" d="M41.68,177.73a6.81,6.81,0,0,0,5.19,2.42h58.87a6.79,6.79,0,0,0,5.18-2.42Z"/><text class="cls-6" transform="translate(35.15 30.64)">DID YOU<tspan class="cls-7"><tspan x="-4" y="28.8">KNOW ?</tspan></tspan></text><text class="cls-8"><tspan x="63.26" y="78.36">WITH</tspan><tspan class="cls-9"><tspan x="47.66" y="101.36">Torre</tspan></tspan></text><text class="cls-10" transform="translate(142.62 68.34)">Lo<tspan class="cls-11" x="1.11" y="0">r</tspan><tspan x="1.46" y="0">em ipsum</tspan></text><g class="cls-12"><circle class="cls-13" cx="128.97" cy="129.9" r="8.56"/><path class="cls-13" d="M149.56,113.46a4.6,4.6,0,1,1-4.59-4.6A4.6,4.6,0,0,1,149.56,113.46Z"/><path class="cls-13" d="M22.82,132.81a8.57,8.57,0,1,1-8.56-8.56A8.57,8.57,0,0,1,22.82,132.81Z"/><path class="cls-13" d="M147.52,155.28a4.89,4.89,0,1,1-4.89-4.88A4.89,4.89,0,0,1,147.52,155.28Z"/><circle class="cls-13" cx="4.88" cy="97.45" r="4.88"/></g></g></g></svg>